<svg xmlns="http://www.w3.org/2000/svg" xmlns:xlink="http://www.w3.org/1999/xlink" width="48" height="48" viewBox="0 0 48 48">
  <defs>
    <radialGradient id="radial-gradient" cx="0.5" cy="0.5" r="0.5" gradientUnits="objectBoundingBox">
      <stop offset="0" stop-color="#eecd73"/>
      <stop offset="1" stop-color="#cb9f26"/>
    </radialGradient>
  </defs>
  <g id="Group_452" data-name="Group 452" transform="translate(-1162 -876)">
    <circle id="Ellipse_31" data-name="Ellipse 31" cx="24" cy="24" r="24" transform="translate(1162 876)" fill="url(#radial-gradient)"/>
    <g id="Group_448" data-name="Group 448" transform="translate(245.345 789.498)">
      <path id="Path_4645" data-name="Path 4645" d="M940.66,98.5q4.712,0,9.423,0a3.346,3.346,0,0,1,3.522,3.533c0,4.982-.005,9.964,0,14.946a3.926,3.926,0,0,1-1.222,2.949c-.592.578-1.171,1.169-1.757,1.754a3.781,3.781,0,0,1-2.775,1.148q-8.385,0-16.769,0a3.329,3.329,0,0,1-3.429-3.422q-.008-8.739,0-17.479a3.331,3.331,0,0,1,3.426-3.424Q935.873,98.495,940.66,98.5Zm11.31,7.337h-22.69v.489q0,6.461,0,12.923a1.753,1.753,0,0,0,1.978,1.955h15.859c0-.9-.011-1.73,0-2.557a2.287,2.287,0,0,1,1.594-2.18,3.8,3.8,0,0,1,1-.123c.751-.017,1.5-.005,2.258-.005Zm.012-1.682c0-.7,0-1.339,0-1.98,0-1.4-.642-2.051-2.035-2.051H935.456c-1.469,0-2.939-.007-4.408,0a1.644,1.644,0,0,0-1.721,1.407c-.083.863-.018,1.74-.018,2.621Zm-3.24,16.836a10.285,10.285,0,0,0,2.991-3.028h-1.923c-.1,0-.2,0-.3,0a.708.708,0,0,0-.761.758C948.732,119.466,948.743,120.207,948.743,120.993Z" fill="#fff"/>
      <path id="Path_4646" data-name="Path 4646" d="M991.048,194.5h6.074c.135,0,.271-.008.4.005a.807.807,0,0,1,.023,1.611,4.054,4.054,0,0,1-.455.007h-12.4c-.627-.008-1-.32-.992-.826.009-.492.368-.788.969-.8.186,0,.371,0,.557,0Z" transform="translate(-50.365 -86.264)" fill="#fff"/>
      <path id="Path_4647" data-name="Path 4647" d="M1005.323,236.134q-2.3,0-4.6,0c-.64,0-1.01-.3-1.017-.8s.362-.821.995-.821q4.681,0,9.362,0c.627,0,1,.319.992.825s-.377.8-1.02.8Q1007.676,236.137,1005.323,236.134Z" transform="translate(-64.744 -122.223)" fill="#fff"/>
    </g>
  </g>
</svg>
