<svg xmlns="http://www.w3.org/2000/svg" width="42.656" height="42.656" viewBox="0 0 42.656 42.656">
  <g id="Group_11" data-name="Group 11" transform="translate(0)">
    <g id="Group_8" data-name="Group 8" transform="translate(0 21.328) rotate(-45)">
      <g id="Group_7" data-name="Group 7" transform="translate(0 0)">
        <path id="Path_54" data-name="Path 54" d="M29.809,25.734,23.1,19.029a1.206,1.206,0,0,0-1.478-.18l-3.767-3.767a.494.494,0,0,0-.7.7L20.9,19.522,19.522,20.9,12.66,14.039l1.378-1.378.918.918a.494.494,0,1,0,.7-.7l-.918-.918,2.389-2.389.189.189a1.244,1.244,0,0,0,1.759,0l.881-.881a1.243,1.243,0,0,0,0-1.758L13.2.364a1.243,1.243,0,0,0-1.758,0l-.881.881a1.243,1.243,0,0,0,0,1.759l.189.189L3.192,10.748,3,10.559a1.245,1.245,0,0,0-1.758,0l-.881.881a1.243,1.243,0,0,0,0,1.758l6.757,6.758a1.244,1.244,0,0,0,1.759,0l.881-.881h0a1.245,1.245,0,0,0,0-1.758l-.189-.189,2.389-2.389,6.888,6.888a1.206,1.206,0,0,0,.18,1.478l6.705,6.705a1.209,1.209,0,0,0,1.709,0l2.365-2.365a1.209,1.209,0,0,0,0-1.709ZM11.258,1.944l.881-.881a.255.255,0,0,1,.36,0l6.758,6.758a.255.255,0,0,1,0,.36l-.881.881a.261.261,0,0,1-.36,0L11.258,2.3a.255.255,0,0,1,0-.36Zm-2.2,16.432-.881.881a.261.261,0,0,1-.36,0L1.063,12.5a.255.255,0,0,1,0-.36l.881-.881a.255.255,0,0,1,.36,0l6.758,6.757A.255.255,0,0,1,9.062,18.376Zm2.55-4.686h0L8.873,16.428,3.892,11.447l7.555-7.555,4.981,4.981-2.738,2.738h0Zm17.5,13.055-2.365,2.365a.22.22,0,0,1-.311,0L19.728,22.4a.22.22,0,0,1,0-.311l.144-.144,2.221-2.221a.22.22,0,0,1,.311,0l6.705,6.705a.22.22,0,0,1,0,.311Z" fill="#fff"/>
      </g>
    </g>
    <g id="Group_10" data-name="Group 10" transform="translate(3.805 31.456)">
      <g id="Group_9" data-name="Group 9">
        <path id="Path_55" data-name="Path 55" d="M18.775,379.968h-.757v-2.605a1.055,1.055,0,0,0-1.054-1.054H8.442a.494.494,0,0,0,0,.989h8.522a.065.065,0,0,1,.065.065v2.605H3.893v-2.605a.065.065,0,0,1,.065-.065H5.336a.494.494,0,0,0,0-.989H3.959A1.055,1.055,0,0,0,2.9,377.363v2.605H2.147A2.15,2.15,0,0,0,0,382.115v1.407a.828.828,0,0,0,.827.827H20.1a.828.828,0,0,0,.827-.827v-1.407A2.15,2.15,0,0,0,18.775,379.968Zm1.159,3.393H.989v-1.246a1.16,1.16,0,0,1,1.159-1.159H18.775a1.16,1.16,0,0,1,1.159,1.159Z" transform="translate(0 -376.309)" fill="#fff"/>
      </g>
    </g>
  </g>
</svg>
