<svg id="auction" xmlns="http://www.w3.org/2000/svg" width="31.746" height="30.578" viewBox="0 0 31.746 30.578">
  <g id="Group_8" data-name="Group 8" transform="translate(2.378 0)">
    <g id="Group_7" data-name="Group 7">
      <path id="Path_54" data-name="Path 54" d="M67.372,34.478l-6.529-6.529a1.174,1.174,0,0,0-1.439-.175l-3.668-3.668a.481.481,0,1,0-.681.681L58.7,28.429l-1.342,1.342L50.675,23.09l1.342-1.342.894.894a.481.481,0,1,0,.681-.681l-.894-.894,2.326-2.326.184.184a1.211,1.211,0,0,0,1.712,0l.857-.858a1.211,1.211,0,0,0,0-1.712L51.2,9.776a1.211,1.211,0,0,0-1.712,0l-.858.858a1.211,1.211,0,0,0,0,1.712l.184.184-7.356,7.356-.184-.184a1.212,1.212,0,0,0-1.712,0l-.858.858a1.211,1.211,0,0,0,0,1.712l6.58,6.58a1.211,1.211,0,0,0,1.712,0l.858-.858h0a1.212,1.212,0,0,0,0-1.712l-.184-.184,2.326-2.326L56.7,30.477a1.174,1.174,0,0,0,.175,1.439L63.4,38.445a1.177,1.177,0,0,0,1.664,0l2.3-2.3a1.177,1.177,0,0,0,0-1.664ZM49.309,11.314l.858-.858a.248.248,0,0,1,.351,0l6.58,6.58a.248.248,0,0,1,0,.351l-.857.858a.254.254,0,0,1-.351,0l-6.58-6.58a.248.248,0,0,1,0-.351Zm-2.138,16-.858.858a.254.254,0,0,1-.351,0l-6.58-6.58a.248.248,0,0,1,0-.351l.857-.858a.248.248,0,0,1,.351,0l6.58,6.58A.248.248,0,0,1,47.171,27.313Zm2.483-4.563h0l-2.667,2.667-4.85-4.85,7.356-7.356,4.85,4.85-2.666,2.666h0ZM66.691,35.461l-2.3,2.3a.214.214,0,0,1-.3,0l-6.529-6.529a.214.214,0,0,1,0-.3l.14-.14,2.163-2.163a.214.214,0,0,1,.3,0l6.529,6.529a.214.214,0,0,1,0,.3Z" transform="translate(-38.348 -9.421)" fill="#fff"/>
    </g>
  </g>
  <g id="Group_10" data-name="Group 10" transform="translate(0 22.748)">
    <g id="Group_9" data-name="Group 9">
      <path id="Path_55" data-name="Path 55" d="M18.281,379.872h-.737v-2.536a1.027,1.027,0,0,0-1.026-1.026H8.22a.481.481,0,0,0,0,.963h8.3a.064.064,0,0,1,.063.063v2.536H3.791v-2.536a.063.063,0,0,1,.063-.063H5.2a.481.481,0,0,0,0-.963H3.854a1.027,1.027,0,0,0-1.026,1.026v2.536H2.091A2.093,2.093,0,0,0,0,381.963v1.37a.806.806,0,0,0,.805.805H19.566a.806.806,0,0,0,.805-.805v-1.37A2.093,2.093,0,0,0,18.281,379.872Zm1.128,3.3H.963v-1.213a1.129,1.129,0,0,1,1.128-1.128h16.19a1.129,1.129,0,0,1,1.128,1.128Z" transform="translate(0 -376.309)" fill="#fff"/>
    </g>
  </g>
</svg>
