<svg xmlns="http://www.w3.org/2000/svg" xmlns:xlink="http://www.w3.org/1999/xlink" width="48" height="48" viewBox="0 0 48 48">
  <defs>
    <radialGradient id="radial-gradient" cx="0.5" cy="0.5" r="0.5" gradientUnits="objectBoundingBox">
      <stop offset="0" stop-color="#5be1ab"/>
      <stop offset="1" stop-color="#2bc98a"/>
    </radialGradient>
  </defs>
  <g id="Group_450" data-name="Group 450" transform="translate(-738 -876)">
    <circle id="Ellipse_30" data-name="Ellipse 30" cx="24" cy="24" r="24" transform="translate(738 876)" fill="url(#radial-gradient)"/>
    <g id="Group_446" data-name="Group 446" transform="translate(181.625 597.975)">
      <path id="Path_4641" data-name="Path 4641" d="M569.426,295.839c.139-1.307.285-2.536.4-3.768a2.334,2.334,0,0,1,2.744-2.384q7.839.636,15.676,1.3c1.914.16,3.831.3,5.743.489a2.241,2.241,0,0,1,2.141,2.54c-.189,2.575-.423,5.146-.639,7.718-.142,1.7-.308,3.389-.421,5.086-.138,2.056-.944,2.8-3.019,2.721-.078,0-.157.008-.318.018,0,.66.005,1.313,0,1.967a2.286,2.286,0,0,1-2.508,2.493q-10.661.008-21.323,0a2.308,2.308,0,0,1-2.52-2.549q0-6.547,0-13.094a2.342,2.342,0,0,1,2.545-2.539C568.4,295.836,568.879,295.839,569.426,295.839Zm-2.845,8.484v.568q0,3.275,0,6.549c0,1,.374,1.376,1.38,1.377q10.6,0,21.209,0c.978,0,1.35-.369,1.352-1.335q.008-3.3,0-6.609c0-.175-.021-.349-.034-.55Zm25.149,3.95c1.691.255,2.018-.024,2.136-1.608.16-2.155.359-4.307.541-6.46.173-2.054.352-4.107.515-6.161a1.129,1.129,0,0,0-1.125-1.384c-.238-.034-.477-.049-.717-.069q-3.2-.264-6.4-.527c-4.566-.382-9.133-.752-13.7-1.162-1.524-.137-1.988.243-1.991,1.688,0,.079-.027.158-.035.237-.1.985-.2,1.971-.31,3.012h.789q8.827,0,17.655,0a2.346,2.346,0,0,1,2.637,2.62q.007,4.534,0,9.068Zm-1.247-5.223v-2.4H566.627v2.4Zm-.034-3.681c.26-1.784-.037-2.355-1.822-2.344-6.8.045-13.6.018-20.407.019a5.641,5.641,0,0,0-.6.01,1.083,1.083,0,0,0-1.026,1c-.034.43-.007.865-.007,1.316Z" fill="#fff"/>
      <path id="Path_4642" data-name="Path 4642" d="M704.157,426.074c.859,0,1.718-.007,2.577,0,.637.007.826.19.831.821q.016,1.678,0,3.356c-.006.626-.2.812-.838.815q-2.637.012-5.274,0c-.667,0-.867-.2-.873-.853q-.014-1.648,0-3.3c.006-.648.21-.839.88-.845C702.359,426.068,703.258,426.074,704.157,426.074Zm-2.338,3.749h4.507v-2.5h-4.507Z" transform="translate(-118.951 -120.008)" fill="#fff"/>
    </g>
  </g>
</svg>
