<svg xmlns="http://www.w3.org/2000/svg" xmlns:xlink="http://www.w3.org/1999/xlink" width="1940" height="1229" viewBox="0 0 1940 1229">
  <defs>
    <linearGradient id="linear-gradient" x1="0.825" y1="0.761" x2="-0.218" y2="-0.168" gradientUnits="objectBoundingBox">
      <stop offset="0" stop-color="#fff" stop-opacity="0"/>
      <stop offset="1" stop-color="#79e9a6"/>
    </linearGradient>
    <linearGradient id="linear-gradient-2" x1="0.678" y1="0.6" x2="-0.303" y2="-0.167" gradientUnits="objectBoundingBox">
      <stop offset="0" stop-color="#fff" stop-opacity="0"/>
      <stop offset="1" stop-color="#e9cb79"/>
    </linearGradient>
    <clipPath id="clip-Shipment_Dashboard2">
      <rect width="1940" height="1229"/>
    </clipPath>
  </defs>
  <g id="Shipment_Dashboard2" data-name="Shipment Dashboard2" clip-path="url(#clip-Shipment_Dashboard2)">
    <rect width="1940" height="1229" fill="#f2f4f6"/>
    <path id="Union_3" data-name="Union 3" d="M273,389.5a113.118,113.118,0,0,1,2.47-23.558A294.243,294.243,0,0,1,233,369C104.318,369,0,286.4,0,184.5S104.318,0,233,0,466,82.6,466,184.5c0,33.428-11.226,64.779-30.858,91.819,50.9,15,87.857,60,87.857,113.181C523,454.946,467.035,508,398,508S273,454.946,273,389.5Z" transform="translate(0 997)" fill="#22a3d4" opacity="0.17"/>
    <g id="Group_440" data-name="Group 440" transform="translate(-4408.805 -10907.684)" opacity="0.19">
      <path id="Path_4631" data-name="Path 4631" d="M6419.043,9981.873c-39.234,63.506-61.085,137.94,82.465,234.71s100.791,63.592,241.286,207.364,268.073-14.46,292.507-163.762-249.745-218.209-63.434-295.626,33.6-334.12-171.041-256.706S6458.277,9918.368,6419.043,9981.873Z" transform="translate(13873.26 1890.209) rotate(74)" fill="#efda21"/>
      <path id="Union_3-2" data-name="Union 3" d="M273,389.5a113.118,113.118,0,0,1,2.47-23.558A294.243,294.243,0,0,1,233,369C104.318,369,0,286.4,0,184.5S104.318,0,233,0,466,82.6,466,184.5c0,33.428-11.226,64.779-30.858,91.819,50.9,15,87.857,60,87.857,113.181C523,454.946,467.035,508,398,508S273,454.946,273,389.5Z" transform="translate(5581 10879)" fill="#3ed422" opacity="0.88"/>
    </g>
    <rect id="Rectangle_1611" data-name="Rectangle 1611" width="818" height="805" transform="translate(1987 1297) rotate(180)" opacity="0.61" fill="url(#linear-gradient)"/>
    <rect id="Rectangle_1610" data-name="Rectangle 1610" width="504" height="677" fill="url(#linear-gradient-2)"/>
    <g id="auction" transform="translate(723.633 417)">
      <g id="Group_8" data-name="Group 8" transform="translate(2.378 0)">
        <g id="Group_7" data-name="Group 7">
          <path id="Path_54" data-name="Path 54" d="M67.372,34.478l-6.529-6.529a1.174,1.174,0,0,0-1.439-.175l-3.668-3.668a.481.481,0,1,0-.681.681L58.7,28.429l-1.342,1.342L50.675,23.09l1.342-1.342.894.894a.481.481,0,1,0,.681-.681l-.894-.894,2.326-2.326.184.184a1.211,1.211,0,0,0,1.712,0l.857-.858a1.211,1.211,0,0,0,0-1.712L51.2,9.776a1.211,1.211,0,0,0-1.712,0l-.858.858a1.211,1.211,0,0,0,0,1.712l.184.184-7.356,7.356-.184-.184a1.212,1.212,0,0,0-1.712,0l-.858.858a1.211,1.211,0,0,0,0,1.712l6.58,6.58a1.211,1.211,0,0,0,1.712,0l.858-.858h0a1.212,1.212,0,0,0,0-1.712l-.184-.184,2.326-2.326L56.7,30.477a1.174,1.174,0,0,0,.175,1.439L63.4,38.445a1.177,1.177,0,0,0,1.664,0l2.3-2.3a1.177,1.177,0,0,0,0-1.664ZM49.309,11.314l.858-.858a.248.248,0,0,1,.351,0l6.58,6.58a.248.248,0,0,1,0,.351l-.857.858a.254.254,0,0,1-.351,0l-6.58-6.58a.248.248,0,0,1,0-.351Zm-2.138,16-.858.858a.254.254,0,0,1-.351,0l-6.58-6.58a.248.248,0,0,1,0-.351l.857-.858a.248.248,0,0,1,.351,0l6.58,6.58A.248.248,0,0,1,47.171,27.313Zm2.483-4.563h0l-2.667,2.667-4.85-4.85,7.356-7.356,4.85,4.85-2.666,2.666h0ZM66.691,35.461l-2.3,2.3a.214.214,0,0,1-.3,0l-6.529-6.529a.214.214,0,0,1,0-.3l.14-.14,2.163-2.163a.214.214,0,0,1,.3,0l6.529,6.529a.214.214,0,0,1,0,.3Z" transform="translate(-38.348 -9.421)" fill="#fff"/>
        </g>
      </g>
      <g id="Group_10" data-name="Group 10" transform="translate(0 22.748)">
        <g id="Group_9" data-name="Group 9">
          <path id="Path_55" data-name="Path 55" d="M18.281,379.872h-.737v-2.536a1.027,1.027,0,0,0-1.026-1.026H8.22a.481.481,0,0,0,0,.963h8.3a.064.064,0,0,1,.063.063v2.536H3.791v-2.536a.063.063,0,0,1,.063-.063H5.2a.481.481,0,0,0,0-.963H3.854a1.027,1.027,0,0,0-1.026,1.026v2.536H2.091A2.093,2.093,0,0,0,0,381.963v1.37a.806.806,0,0,0,.805.805H19.566a.806.806,0,0,0,.805-.805v-1.37A2.093,2.093,0,0,0,18.281,379.872Zm1.128,3.3H.963v-1.213a1.129,1.129,0,0,1,1.128-1.128h16.19a1.129,1.129,0,0,1,1.128,1.128Z" transform="translate(0 -376.309)" fill="#fff"/>
        </g>
      </g>
    </g>
    <g id="Group_11" data-name="Group 11" transform="translate(722.051 478)">
      <g id="Group_8-2" data-name="Group 8" transform="translate(0 21.328) rotate(-45)">
        <g id="Group_7-2" data-name="Group 7" transform="translate(0 0)">
          <path id="Path_54-2" data-name="Path 54" d="M29.809,25.734,23.1,19.029a1.206,1.206,0,0,0-1.478-.18l-3.767-3.767a.494.494,0,0,0-.7.7L20.9,19.522,19.522,20.9,12.66,14.039l1.378-1.378.918.918a.494.494,0,1,0,.7-.7l-.918-.918,2.389-2.389.189.189a1.244,1.244,0,0,0,1.759,0l.881-.881a1.243,1.243,0,0,0,0-1.758L13.2.364a1.243,1.243,0,0,0-1.758,0l-.881.881a1.243,1.243,0,0,0,0,1.759l.189.189L3.192,10.748,3,10.559a1.245,1.245,0,0,0-1.758,0l-.881.881a1.243,1.243,0,0,0,0,1.758l6.757,6.758a1.244,1.244,0,0,0,1.759,0l.881-.881h0a1.245,1.245,0,0,0,0-1.758l-.189-.189,2.389-2.389,6.888,6.888a1.206,1.206,0,0,0,.18,1.478l6.705,6.705a1.209,1.209,0,0,0,1.709,0l2.365-2.365a1.209,1.209,0,0,0,0-1.709ZM11.258,1.944l.881-.881a.255.255,0,0,1,.36,0l6.758,6.758a.255.255,0,0,1,0,.36l-.881.881a.261.261,0,0,1-.36,0L11.258,2.3a.255.255,0,0,1,0-.36Zm-2.2,16.432-.881.881a.261.261,0,0,1-.36,0L1.063,12.5a.255.255,0,0,1,0-.36l.881-.881a.255.255,0,0,1,.36,0l6.758,6.757A.255.255,0,0,1,9.062,18.376Zm2.55-4.686h0L8.873,16.428,3.892,11.447l7.555-7.555,4.981,4.981-2.738,2.738h0Zm17.5,13.055-2.365,2.365a.22.22,0,0,1-.311,0L19.728,22.4a.22.22,0,0,1,0-.311l.144-.144,2.221-2.221a.22.22,0,0,1,.311,0l6.705,6.705a.22.22,0,0,1,0,.311Z" fill="#fff"/>
        </g>
      </g>
      <g id="Group_10-2" data-name="Group 10" transform="translate(3.805 31.456)">
        <g id="Group_9-2" data-name="Group 9">
          <path id="Path_55-2" data-name="Path 55" d="M18.775,379.968h-.757v-2.605a1.055,1.055,0,0,0-1.054-1.054H8.442a.494.494,0,0,0,0,.989h8.522a.065.065,0,0,1,.065.065v2.605H3.893v-2.605a.065.065,0,0,1,.065-.065H5.336a.494.494,0,0,0,0-.989H3.959A1.055,1.055,0,0,0,2.9,377.363v2.605H2.147A2.15,2.15,0,0,0,0,382.115v1.407a.828.828,0,0,0,.827.827H20.1a.828.828,0,0,0,.827-.827v-1.407A2.15,2.15,0,0,0,18.775,379.968Zm1.159,3.393H.989v-1.246a1.16,1.16,0,0,1,1.159-1.159H18.775a1.16,1.16,0,0,1,1.159,1.159Z" transform="translate(0 -376.309)" fill="#fff"/>
        </g>
      </g>
    </g>
  </g>
</svg>
