<svg xmlns="http://www.w3.org/2000/svg" width="63" height="43.604" viewBox="0 0 63 43.604">
  <g id="Group_387" data-name="Group 387" transform="translate(-1692.846 -1184.846)">
    <path id="Path_4596" data-name="Path 4596" d="M2311.231,1198.1a.444.444,0,0,0,.481.742l9.307-5.986a.089.089,0,0,1,.136.09l-.914,5.267a2.425,2.425,0,0,1-1.175,1.684l-10.367,6a.446.446,0,0,0,.395.8l8.595-4.234a.147.147,0,0,1,.191.206l-7.557,12.806-.113.117-6.837,4.391-14.669-9.991a.326.326,0,0,0-.314-.027l-3.8,1.771a2.017,2.017,0,0,1-2.379-.508l-2.2-2.533a.73.73,0,0,1,.314-1.17l2.713-.916v.007l6.45-2.179a.7.7,0,0,1,.468,0l6.216,2.092a.32.32,0,0,0,.367-.127l3.562-5.554.615-.949.077-.08,21.216-14.9a.316.316,0,0,1,.494.314l-.88,5.042a.614.614,0,0,1-.242.39Z" transform="translate(-566.666 0)" fill="#ffada8"/>
    <path id="Path_4597" data-name="Path 4597" d="M1736.706,1219.971l-12.108,8.234a1.37,1.37,0,0,1-1.566,0l-18.57-12.626-.09-.1-7.152-12.825a.146.146,0,0,1,.183-.207l8.118,4.237c.473.194.8-.508.372-.8l-9.793-6a2.427,2.427,0,0,1-1.11-1.683l-.865-5.266a.085.085,0,0,1,.126-.094l8.794,5.988c.454.254.852-.408.454-.742l-9.589-7.445a.62.62,0,0,1-.227-.394l-.833-5.039a.3.3,0,0,1,.467-.314l20.043,14.9.068.075,4.073,6.715-2.563.916a.748.748,0,0,0-.3,1.17l2.077,2.533a1.834,1.834,0,0,0,2.247.508l3.586-1.771a.293.293,0,0,1,.3.027Z" transform="translate(0 0)" fill="#45d5c6"/>
  </g>
</svg>
