<svg xmlns="http://www.w3.org/2000/svg" xmlns:xlink="http://www.w3.org/1999/xlink" width="48" height="48" viewBox="0 0 48 48">
  <defs>
    <radialGradient id="radial-gradient" cx="0.5" cy="0.5" r="0.5" gradientUnits="objectBoundingBox">
      <stop offset="0" stop-color="#f5c1c1"/>
      <stop offset="1" stop-color="#d88787"/>
    </radialGradient>
  </defs>
  <g id="Group_449" data-name="Group 449" transform="translate(-738 -729)">
    <circle id="Ellipse_29" data-name="Ellipse 29" cx="24" cy="24" r="24" transform="translate(738 729)" fill="url(#radial-gradient)"/>
    <g id="Group_444" data-name="Group 444" transform="translate(194.467 478.943)">
      <path id="Path_4635" data-name="Path 4635" d="M552.313,273.261a15.21,15.21,0,0,1,14.424-14.423c0-.678,0-1.3,0-1.931,0-.486.184-.853.706-.851s.7.373.7.858c-.005.625,0,1.251,0,1.92a15.212,15.212,0,0,1,14.422,14.427c.646,0,1.271.007,1.9,0,.479-.007.869.15.886.672.019.566-.38.741-.891.735-.6-.007-1.208,0-1.882,0a15.229,15.229,0,0,1-14.43,14.428c0,.673,0,1.3,0,1.925,0,.486-.185.853-.706.851s-.7-.373-.7-.858c.005-.626,0-1.252,0-1.873a15.365,15.365,0,0,1-14.453-14.472c-.618,0-1.242-.006-1.866,0-.479.006-.868-.152-.884-.673-.018-.566.382-.739.893-.733C551.05,273.267,551.673,273.261,552.313,273.261Zm15.827,14.356c7.469-.214,13-6.9,12.9-12.953-.6,0-1.207,0-1.811,0-.486,0-.853-.183-.852-.7s.372-.7.857-.7c.623.005,1.246,0,1.872,0a13.63,13.63,0,0,0-12.969-12.95c0,.508,0,1.016,0,1.524,0,.548.049,1.187-.721,1.178-.717-.009-.69-.617-.684-1.146s0-1.055,0-1.585A13.617,13.617,0,0,0,553.8,273.261c.6,0,1.2.007,1.806,0,.479-.007.869.149.887.67.02.565-.378.742-.89.736-.616-.007-1.233,0-1.852,0,.422,7.946,7.242,12.958,12.983,12.918,0-.555.01-1.112,0-1.668-.012-.511.072-.995.689-1.007s.73.456.719.976C568.131,286.461,568.14,287.038,568.14,287.617Z" transform="translate(0 0)" fill="#fff"/>
      <path id="Path_4640" data-name="Path 4640" d="M628.622,331.406a6.257,6.257,0,0,1-.916-5.527,5.437,5.437,0,0,1,1.879-2.8,4.444,4.444,0,0,1,6.545,1.118,6.009,6.009,0,0,1,.279,6.607c-.107.2-.235.392-.373.622a8.345,8.345,0,0,1,3.342,4.938,12.738,12.738,0,0,1,.283,2c.063.814-.176,1.05-1,1.053-1.935.008-3.871,0-5.806,0q-3.392,0-6.785,0c-.908,0-1.117-.223-1.07-1.129a8.57,8.57,0,0,1,3.4-6.682C628.476,331.556,628.536,331.487,628.622,331.406Zm1.078,1.054c-1.907,1.128-3.437,3.81-3.167,5.519h11.708a7.043,7.043,0,0,0-3.03-5.377.554.554,0,0,0-.487.009A4.456,4.456,0,0,1,629.7,332.461Zm6.137-4.74a4.61,4.61,0,0,0-1.079-3.018,3.072,3.072,0,0,0-4.858.006,4.767,4.767,0,0,0,.121,6.151,3.081,3.081,0,0,0,4.677-.058A4.634,4.634,0,0,0,635.837,327.72Z" transform="translate(-64.895 -56.799)" fill="#fff"/>
    </g>
  </g>
</svg>
