<svg xmlns="http://www.w3.org/2000/svg" xmlns:xlink="http://www.w3.org/1999/xlink" width="48" height="48" viewBox="0 0 48 48">
  <defs>
    <radialGradient id="radial-gradient" cx="0.5" cy="0.5" r="0.5" gradientUnits="objectBoundingBox">
      <stop offset="0" stop-color="#b7b2ff"/>
      <stop offset="1" stop-color="#1a0ce2"/>
    </radialGradient>
  </defs>
  <g id="Group_451" data-name="Group 451" transform="translate(-1162 -725)">
    <circle id="Ellipse_32" data-name="Ellipse 32" cx="24" cy="24" r="24" transform="translate(1162 725)" fill="url(#radial-gradient)"/>
    <g id="Group_447" data-name="Group 447" transform="translate(560.214 349.041)">
      <path id="Path_4643" data-name="Path 4643" d="M616.226,393.931c-.282-.259-.6-.575-.952-.86a.518.518,0,0,0-.4-.067.792.792,0,0,1-.8-1.346l4.387-4.391a.771.771,0,0,1,1.032-.181.787.787,0,0,1,.328.955.571.571,0,0,0,.084.442c.324.382.682.734,1.059,1.129.579-.552,1.116-1.043,1.628-1.557a3.624,3.624,0,0,1,2.72-1.1c2.486.017,4.973-.009,7.459.011a4.61,4.61,0,0,1,4.552,3.7,5.063,5.063,0,0,1,.072.985q.006,8.658,0,17.317a4.57,4.57,0,0,1-4.669,4.695q-7.041.021-14.083,0a4.58,4.58,0,0,1-4.679-4.689c-.009-3.721.006-7.441-.008-11.162a3.361,3.361,0,0,1,1.1-2.6C615.46,394.856,615.789,394.424,616.226,393.931Zm19.611,6.429q0-4.3,0-8.607a4.01,4.01,0,0,0-.08-.93,3.051,3.051,0,0,0-3.055-2.285c-2.469-.015-4.938,0-7.407-.01a2.166,2.166,0,0,0-1.59.643q-3.748,3.59-7.52,7.155a1.946,1.946,0,0,0-.649,1.521c.012,3.7,0,7.407.008,11.111a3.009,3.009,0,0,0,3.1,3.144q7.042.021,14.084,0a3.007,3.007,0,0,0,3.108-3.137Q635.841,404.664,635.837,400.36Zm-17.188-10.867-2.311,2.281,1.106,1.194,2.393-2.272Z" fill="#fff"/>
      <path id="Path_4644" data-name="Path 4644" d="M687.113,484.912l-3.48,3.484c-.13.13-.256.264-.392.388a.637.637,0,1,1-.883-.912c.067-.073.139-.141.209-.211l3.329-3.329c.1-.1.192-.2.307-.324-.115-.123-.215-.237-.322-.344q-1.708-1.71-3.418-3.42c-.406-.406-.453-.766-.146-1.063s.646-.235,1.032.15q1.712,1.707,3.418,3.419c.108.109.2.238.388.473a6.415,6.415,0,0,1,.463-.607c1.054-1.065,2.116-2.122,3.176-3.182.488-.487.839-.56,1.152-.237s.228.658-.266,1.152l-3.328,3.329c-.1.1-.193.2-.389.409a4.332,4.332,0,0,1,.52.381q1.643,1.626,3.272,3.266c.426.427.485.8.178,1.092s-.649.237-1.092-.206l-3.389-3.389C687.35,485.133,687.247,485.039,687.113,484.912Z" transform="translate(-61.201 -82.437)" fill="#fff"/>
    </g>
  </g>
</svg>
