<svg xmlns="http://www.w3.org/2000/svg" width="81.583" height="77" viewBox="0 0 81.583 77">
  <g id="Group_436" data-name="Group 436" transform="translate(-207.221 -37.056)">
    <g id="Layer_3" data-name="Layer 3" transform="translate(207.221 37.056)">
      <g id="Group_428" data-name="Group 428">
        <g id="Group_389" data-name="Group 389" transform="translate(7.931 24.785)">
          <path id="Path_4598" data-name="Path 4598" d="M279.848,97.552H231.872a4.612,4.612,0,0,0-4.612,4.612v1.25h19.657a5.268,5.268,0,0,1,4.25,2.155l3.568,4.871a5.268,5.268,0,0,0,4.25,2.155h16.252a4.612,4.612,0,0,1,4.612,4.612V143.89h0a5.044,5.044,0,0,0,5.044,5.044h0a5.043,5.043,0,0,0,5.043-5.044V102.164a4.612,4.612,0,0,0-4.612-4.612Z" transform="translate(-226.843 -97.135)" fill="#fff"/>
          <g id="Group_388" data-name="Group 388">
            <path id="Path_4599" data-name="Path 4599" d="M284.308,148.767a5.466,5.466,0,0,1-5.46-5.46V116.625a4.2,4.2,0,0,0-4.2-4.2H258.4a5.7,5.7,0,0,1-4.586-2.326l-3.567-4.871a4.868,4.868,0,0,0-3.914-1.985H226.677a.417.417,0,0,1-.417-.417v-1.25a5.034,5.034,0,0,1,5.029-5.029H284.74a5.034,5.034,0,0,1,5.029,5.029v41.726A5.466,5.466,0,0,1,284.308,148.767Zm-57.215-46.352h19.24a5.7,5.7,0,0,1,4.586,2.326l3.568,4.871A4.869,4.869,0,0,0,258.4,111.6h16.252a5.034,5.034,0,0,1,5.029,5.029v26.682a4.627,4.627,0,1,0,9.254,0V101.581a4.2,4.2,0,0,0-4.2-4.2H231.289a4.2,4.2,0,0,0-4.2,4.2Z" transform="translate(-226.26 -96.552)" fill="#677089"/>
          </g>
        </g>
        <g id="Group_406" data-name="Group 406" transform="translate(12.151)">
          <g id="Group_393" data-name="Group 393">
            <path id="Path_4600" data-name="Path 4600" d="M272.955,38.056H240.008a2.618,2.618,0,0,0-2.618,2.618V94.331a2.618,2.618,0,0,0,2.618,2.618h41.378A2.618,2.618,0,0,0,284,94.331V48.969Z" transform="translate(-236.973 -37.639)" fill="#fff"/>
            <g id="Group_390" data-name="Group 390">
              <path id="Path_4601" data-name="Path 4601" d="M280.8,96.782H239.425a3.038,3.038,0,0,1-3.035-3.035V85a.417.417,0,0,1,.833,0v8.751a2.2,2.2,0,0,0,2.2,2.2H280.8a2.2,2.2,0,0,0,2.2-2.2V48.557L272.482,37.889H239.425a2.2,2.2,0,0,0-2.2,2.2V81.955a.417.417,0,1,1-.833,0V40.091a3.038,3.038,0,0,1,3.035-3.035h33.231a.417.417,0,0,1,.3.124l10.765,10.913a.417.417,0,0,1,.12.293V93.748A3.038,3.038,0,0,1,280.8,96.782Z" transform="translate(-236.39 -37.056)" fill="#677089"/>
            </g>
            <g id="Group_391" data-name="Group 391" transform="translate(41.805 10.913)">
              <path id="Path_4602" data-name="Path 4602" d="M341.968,64.086h-4.81a.417.417,0,0,1,0-.833h4.81a.417.417,0,1,1,0,.833Z" transform="translate(-336.742 -63.253)" fill="#677089"/>
            </g>
            <g id="Group_392" data-name="Group 392" transform="translate(35.85)">
              <path id="Path_4603" data-name="Path 4603" d="M326.025,48.8a3.584,3.584,0,0,1-3.579-3.579V37.473a.417.417,0,1,1,.833,0v7.751a2.749,2.749,0,0,0,2.746,2.746.417.417,0,0,1,0,.833Z" transform="translate(-322.446 -37.056)" fill="#677089"/>
            </g>
          </g>
          <rect id="Rectangle_1604" data-name="Rectangle 1604" width="33.244" height="2.521" transform="translate(7.648 44.899)" fill="#c5cae9"/>
          <g id="Group_405" data-name="Group 405" transform="translate(6.325 10.832)">
            <g id="Group_400" data-name="Group 400">
              <g id="Group_394" data-name="Group 394">
                <path id="Path_4604" data-name="Path 4604" d="M265.754,63.892H251.99a.417.417,0,0,1,0-.833h13.764a.417.417,0,0,1,0,.833Z" transform="translate(-251.573 -63.059)" fill="#677089"/>
              </g>
              <g id="Group_395" data-name="Group 395" transform="translate(12.074 5.841)">
                <path id="Path_4605" data-name="Path 4605" d="M304.192,77.913H280.974a.417.417,0,1,1,0-.833h23.219a.417.417,0,1,1,0,.833Z" transform="translate(-280.557 -77.08)" fill="#677089"/>
              </g>
              <g id="Group_396" data-name="Group 396" transform="translate(0 5.841)">
                <path id="Path_4606" data-name="Path 4606" d="M260.148,77.913H251.99a.417.417,0,1,1,0-.833h8.159a.417.417,0,1,1,0,.833Z" transform="translate(-251.573 -77.08)" fill="#677089"/>
              </g>
              <g id="Group_397" data-name="Group 397" transform="translate(0 11.681)">
                <path id="Path_4607" data-name="Path 4607" d="M287.283,91.933H251.99a.417.417,0,0,1,0-.833h35.293a.417.417,0,0,1,0,.833Z" transform="translate(-251.573 -91.1)" fill="#677089"/>
              </g>
              <g id="Group_398" data-name="Group 398" transform="translate(0 17.522)">
                <path id="Path_4608" data-name="Path 4608" d="M287.283,105.954H251.99a.417.417,0,0,1,0-.833h35.293a.417.417,0,0,1,0,.833Z" transform="translate(-251.573 -105.121)" fill="#677089"/>
              </g>
              <g id="Group_399" data-name="Group 399" transform="translate(0 23.363)">
                <path id="Path_4609" data-name="Path 4609" d="M281.491,119.974h-29.5a.417.417,0,0,1,0-.833h29.5a.417.417,0,1,1,0,.833Z" transform="translate(-251.573 -119.141)" fill="#677089"/>
              </g>
            </g>
            <g id="Group_401" data-name="Group 401" transform="translate(31.612 21.596)">
              <path id="Path_4610" data-name="Path 4610" d="M329.64,119.267a2.184,2.184,0,1,1,2.184-2.184A2.186,2.186,0,0,1,329.64,119.267Zm0-3.534a1.35,1.35,0,1,0,1.351,1.35A1.352,1.352,0,0,0,329.64,115.733Z" transform="translate(-327.457 -114.9)" fill="#677089"/>
            </g>
            <g id="Group_402" data-name="Group 402" transform="translate(0 41.818)">
              <path id="Path_4611" data-name="Path 4611" d="M286.983,164.275h-1.25a.417.417,0,0,1,0-.833h1.25a.417.417,0,0,1,0,.833Zm-3.749,0h-1.25a.417.417,0,1,1,0-.833h1.25a.417.417,0,0,1,0,.833Zm-3.749,0h-1.25a.417.417,0,1,1,0-.833h1.25a.417.417,0,0,1,0,.833Zm-3.749,0h-1.25a.417.417,0,1,1,0-.833h1.25a.417.417,0,0,1,0,.833Zm-3.749,0h-1.25a.417.417,0,1,1,0-.833h1.25a.417.417,0,0,1,0,.833Zm-3.749,0h-1.25a.417.417,0,0,1,0-.833h1.25a.417.417,0,0,1,0,.833Zm-3.749,0h-1.25a.417.417,0,0,1,0-.833h1.25a.417.417,0,0,1,0,.833Zm-3.749,0h-1.25a.417.417,0,0,1,0-.833h1.25a.417.417,0,0,1,0,.833Zm-3.749,0h-1.25a.417.417,0,1,1,0-.833h1.25a.417.417,0,1,1,0,.833Zm-3.749,0h-1.25a.417.417,0,0,1,0-.833h1.25a.417.417,0,0,1,0,.833Z" transform="translate(-251.573 -163.442)" fill="#677089"/>
            </g>
            <g id="Group_403" data-name="Group 403" transform="translate(29.182 35.634)">
              <path id="Path_4612" data-name="Path 4612" d="M325.686,153.074a.414.414,0,0,1-.295-.122l-3.645-3.644a.417.417,0,1,1,.589-.589l3.645,3.644a.417.417,0,0,1-.294.711Z" transform="translate(-321.625 -148.596)" fill="#677089"/>
            </g>
            <g id="Group_404" data-name="Group 404" transform="translate(29.182 35.486)">
              <path id="Path_4613" data-name="Path 4613" d="M322.041,152.867a.417.417,0,0,1-.295-.711l3.792-3.791a.417.417,0,1,1,.589.589l-3.792,3.791A.414.414,0,0,1,322.041,152.867Z" transform="translate(-321.625 -148.243)" fill="#677089"/>
            </g>
          </g>
        </g>
        <g id="Group_415" data-name="Group 415" transform="translate(41.438 20.026)">
          <rect id="Rectangle_1606" data-name="Rectangle 1606" width="39.312" height="37.631" rx="4.926" transform="translate(0.417 0.417)" fill="#fff"/>
          <g id="Group_407" data-name="Group 407">
            <path id="Path_4614" data-name="Path 4614" d="M344.368,123.592H309.161a2.472,2.472,0,0,1-2.469-2.469V87.6a2.472,2.472,0,0,1,2.469-2.469h35.208a2.472,2.472,0,0,1,2.469,2.469v33.527A2.472,2.472,0,0,1,344.368,123.592ZM309.161,85.961a1.637,1.637,0,0,0-1.635,1.636v33.527a1.637,1.637,0,0,0,1.635,1.636h35.208A1.638,1.638,0,0,0,346,121.123V87.6a1.638,1.638,0,0,0-1.636-1.636Z" transform="translate(-306.692 -85.128)" fill="#677089"/>
          </g>
          <g id="Group_409" data-name="Group 409" transform="translate(8.596 9.059)">
            <circle id="Ellipse_26" data-name="Ellipse 26" cx="4.914" cy="4.914" r="4.914" transform="translate(0 9.562) rotate(-76.649)" fill="#f9ffaa"/>
            <g id="Group_408" data-name="Group 408" transform="translate(0.585 0.585)">
              <path id="Path_4615" data-name="Path 4615" d="M334.063,118.941a5.331,5.331,0,1,1,5.33-5.331A5.336,5.336,0,0,1,334.063,118.941Zm0-9.828a4.5,4.5,0,1,0,4.5,4.5A4.5,4.5,0,0,0,334.063,109.113Z" transform="translate(-328.732 -108.28)" fill="#677089"/>
            </g>
          </g>
          <g id="Group_413" data-name="Group 413" transform="translate(3.75 13.745)">
            <path id="Path_4616" data-name="Path 4616" d="M316.694,129.128l.453-2.479,7.242-7.306,7.63,7.242,5.593-5.593,5.981,5.658,4.914-4.817-.1,10.119L347.992,133l-1.538.7-28.619-.216-1.141-1.175Z" transform="translate(-316.278 -118.834)" fill="#33d2c1"/>
            <g id="Group_410" data-name="Group 410">
              <path id="Path_4617" data-name="Path 4617" d="M334.344,129.328a.414.414,0,0,1-.295-.122l-10.083-10.083-7.561,7.561a.417.417,0,0,1-.589-.589l7.856-7.856a.429.429,0,0,1,.589,0l10.378,10.378a.417.417,0,0,1-.295.711Z" transform="translate(-315.694 -118.122)" fill="#677089"/>
            </g>
            <g id="Group_411" data-name="Group 411" transform="translate(15.259 1.644)">
              <path id="Path_4618" data-name="Path 4618" d="M352.74,128.656a.417.417,0,0,1-.295-.712l5.755-5.754a.416.416,0,0,1,.589,0l5.561,5.561a.417.417,0,1,1-.589.589l-5.266-5.266-5.46,5.46A.415.415,0,0,1,352.74,128.656Z" transform="translate(-352.323 -122.068)" fill="#677089"/>
            </g>
            <g id="Group_412" data-name="Group 412" transform="translate(24.635 2.581)">
              <path id="Path_4619" data-name="Path 4619" d="M375.246,132.232a.417.417,0,0,1-.294-.711l7.08-7.08a.417.417,0,0,1,.589.589l-7.08,7.08A.415.415,0,0,1,375.246,132.232Z" transform="translate(-374.829 -124.318)" fill="#677089"/>
            </g>
          </g>
          <g id="Group_414" data-name="Group 414" transform="translate(3.75 3.59)">
            <path id="Path_4620" data-name="Path 4620" d="M345.87,119.179H318.163a2.472,2.472,0,0,1-2.469-2.469v-20.5a2.472,2.472,0,0,1,2.469-2.469H345.87a2.472,2.472,0,0,1,2.469,2.469v20.5A2.472,2.472,0,0,1,345.87,119.179Zm-27.707-24.6a1.638,1.638,0,0,0-1.635,1.636v20.5a1.637,1.637,0,0,0,1.635,1.635H345.87a1.638,1.638,0,0,0,1.636-1.635v-20.5a1.638,1.638,0,0,0-1.636-1.636Z" transform="translate(-315.694 -93.745)" fill="#677089"/>
          </g>
        </g>
        <g id="Group_423" data-name="Group 423" transform="translate(54.305 54.19)">
          <g id="Group_419" data-name="Group 419">
            <g id="Group_417" data-name="Group 417" transform="translate(0 0)">
              <rect id="Rectangle_1607" data-name="Rectangle 1607" width="21.508" height="14.64" transform="matrix(1, -0.003, 0.003, 1, 0.417, 0.471)" fill="#fff"/>
              <g id="Group_416" data-name="Group 416">
                <path id="Path_4621" data-name="Path 4621" d="M338.032,182.666a.417.417,0,0,1-.417-.415l-.01-4.157a.417.417,0,0,1,.415-.418h0a.417.417,0,0,1,.417.416l.009,3.74,20.674-.052-.035-13.806-20.675.053.015,5.91a.417.417,0,0,1-.415.418h0a.417.417,0,0,1-.417-.416l-.016-6.326a.417.417,0,0,1,.415-.418l21.508-.055a.509.509,0,0,1,.295.121.415.415,0,0,1,.123.294l.037,14.64a.416.416,0,0,1-.415.417l-21.507.055Z" transform="translate(-337.578 -167.139)" fill="#677089"/>
              </g>
            </g>
            <g id="Group_418" data-name="Group 418" transform="translate(0)">
              <path id="Path_4622" data-name="Path 4622" d="M348.774,178.1a.416.416,0,0,1-.284-.112l-10.78-10.069a.417.417,0,0,1,.569-.609l10.493,9.8,10.444-9.856a.417.417,0,1,1,.572.606l-10.728,10.124A.416.416,0,0,1,348.774,178.1Z" transform="translate(-337.579 -167.139)" fill="#677089"/>
            </g>
          </g>
          <g id="Group_422" data-name="Group 422" transform="translate(17.76 10.096)">
            <path id="Path_4623" data-name="Path 4623" d="M388.848,196.184a3.819,3.819,0,1,1-3.828-3.809A3.819,3.819,0,0,1,388.848,196.184Z" transform="translate(-380.793 -191.958)" fill="#33d2c1"/>
            <g id="Group_420" data-name="Group 420">
              <path id="Path_4624" data-name="Path 4624" d="M384.445,199.846a4.235,4.235,0,0,1-.011-8.471h0a.417.417,0,0,1,0,.833,3.4,3.4,0,0,0,.008,6.8h.009a3.406,3.406,0,0,0,3.393-3.411.416.416,0,0,1,.415-.417h0a.416.416,0,0,1,.417.415,4.241,4.241,0,0,1-4.225,4.246Z" transform="translate(-380.21 -191.375)" fill="#677089"/>
            </g>
            <g id="Group_421" data-name="Group 421" transform="translate(1.736 0.591)">
              <path id="Path_4625" data-name="Path 4625" d="M386.755,197.875a.413.413,0,0,1-.294-.121l-1.96-1.95a.417.417,0,1,1,.587-.591l1.665,1.657,3.933-3.952a.417.417,0,0,1,.591.588l-4.227,4.247A.414.414,0,0,1,386.755,197.875Z" transform="translate(-384.378 -192.794)" fill="#677089"/>
            </g>
          </g>
        </g>
        <g id="Group_427" data-name="Group 427" transform="translate(0 30.647)">
          <path id="Path_4626" data-name="Path 4626" d="M268.741,152.1V125.418a4.612,4.612,0,0,0-4.612-4.612H247.877a5.268,5.268,0,0,1-4.25-2.155l-3.568-4.871a5.268,5.268,0,0,0-4.25-2.155H212.833a4.612,4.612,0,0,0-4.612,4.612v36.294a4.612,4.612,0,0,0,4.612,4.612h60.951a5.044,5.044,0,0,1-5.044-5.044Z" transform="translate(-207.804 -111.207)" fill="#d7eeda"/>
          <g id="Group_424" data-name="Group 424" transform="translate(0 21.224)">
            <path id="Path_4627" data-name="Path 4627" d="M207.638,164.349a.416.416,0,0,1-.417-.417v-1.944a.417.417,0,0,1,.833,0v1.944A.416.416,0,0,1,207.638,164.349Z" transform="translate(-207.221 -161.572)" fill="#677089"/>
          </g>
          <g id="Group_425" data-name="Group 425">
            <path id="Path_4628" data-name="Path 4628" d="M207.638,130.251a.416.416,0,0,1-.417-.417V115.653a5.035,5.035,0,0,1,5.029-5.029h22.976a5.7,5.7,0,0,1,4.586,2.326l3.568,4.871a4.869,4.869,0,0,0,3.914,1.985h10.037a.417.417,0,1,1,0,.833H247.293a5.7,5.7,0,0,1-4.586-2.326l-3.567-4.871a4.868,4.868,0,0,0-3.914-1.985H212.25a4.2,4.2,0,0,0-4.2,4.2v14.181A.416.416,0,0,1,207.638,130.251Z" transform="translate(-207.221 -110.624)" fill="#677089"/>
          </g>
          <g id="Group_426" data-name="Group 426" transform="translate(0 9.182)">
            <path id="Path_4629" data-name="Path 4629" d="M273.2,169.835H212.25a5.034,5.034,0,0,1-5.029-5.029V151.927a.417.417,0,0,1,.833,0v12.879a4.2,4.2,0,0,0,4.2,4.2H270.3a5.461,5.461,0,0,1-2.564-4.627V137.693a4.2,4.2,0,0,0-4.2-4.2h-4.166a.417.417,0,1,1,0-.833h4.166a5.034,5.034,0,0,1,5.029,5.029v26.682A4.632,4.632,0,0,0,273.2,169a.417.417,0,1,1,0,.833Z" transform="translate(-207.221 -132.664)" fill="#677089"/>
          </g>
        </g>
      </g>
    </g>
  </g>
</svg>
